<svg width="62" height="62" viewBox="0 0 62 62" fill="none" xmlns="http://www.w3.org/2000/svg">
<g opacity="0.1" clip-path="url(#clip0_1191_871)">
<path d="M39.0736 43.001L42.1927 49.5309M49.4451 31.4706C47.654 36.5376 43.9234 40.6855 39.074 43.0019C34.2246 45.3183 28.6537 45.6134 23.5867 43.8223C18.5197 42.0312 14.3718 38.3006 12.0554 33.4512C9.73902 28.6018 9.44391 23.0309 11.235 17.9639L49.4451 31.4706ZM9.11223 17.2135L16.7349 19.9081L9.11223 17.2135ZM51.5679 32.221L43.9451 29.5265L51.5679 32.221ZM34.3568 53.2738L50.0285 45.7879L34.3568 53.2738Z" stroke="black" stroke-width="2" stroke-miterlimit="10" stroke-linecap="round" stroke-linejoin="round"/>
<path d="M36.5792 37.777C43.7919 34.3317 46.846 25.6917 43.4008 18.479C39.9555 11.2662 31.3155 8.21213 24.1028 11.6574C16.89 15.1027 13.8359 23.7427 17.2812 30.9554C20.7265 38.1681 29.3665 41.2223 36.5792 37.777Z" stroke="black" stroke-width="2" stroke-miterlimit="10" stroke-linecap="round" stroke-linejoin="round"/>
</g>
<defs>
<clipPath id="clip0_1191_871">
<rect width="46.3142" height="46.3142" fill="white" transform="translate(0 19.9624) rotate(-25.5323)"/>
</clipPath>
</defs>
</svg>
