<svg width="68" height="68" viewBox="0 0 68 68" fill="none" xmlns="http://www.w3.org/2000/svg">
<g clip-path="url(#clip0_1191_867)">
<path d="M26.8509 39.8453L29.1555 37.3013L44.0375 24.7009L53.2694 22.1656L64.635 39.1489L51.208 43.5809M26.8509 39.8453L13.0029 43.6483L24.7895 61.2607L38.6795 57.5206M26.8509 39.8453L38.6795 57.5206M38.6795 57.5206L51.208 43.5809M51.208 43.5809L43.6731 32.3216" stroke="#2D3134" stroke-width="2" stroke-miterlimit="10" stroke-linecap="round" stroke-linejoin="round"/>
<path d="M20.9703 14.7283C18.6347 16.2913 17.0157 18.7181 16.4694 21.4748C15.9232 24.2314 16.4943 27.0922 18.0573 29.4278C23.3613 37.3533 37.8081 39.8889 37.8081 39.8889C37.8081 39.8889 40.9736 25.5668 35.6697 17.6412C34.1067 15.3057 31.68 13.6867 28.9233 13.1404C26.1666 12.5941 23.3058 13.1653 20.9703 14.7283V14.7283Z" stroke="#2D3134" stroke-width="2" stroke-miterlimit="10" stroke-linecap="round" stroke-linejoin="round"/>
<path d="M28.5467 26.0507C29.9363 25.1208 30.3089 23.2404 29.379 21.8509C28.4491 20.4613 26.5687 20.0887 25.1791 21.0186C23.7896 21.9485 23.4169 23.8289 24.3469 25.2184C25.2768 26.608 27.1571 26.9806 28.5467 26.0507Z" stroke="#2D3134" stroke-width="2" stroke-miterlimit="10" stroke-linecap="round" stroke-linejoin="round"/>
</g>
<defs>
<clipPath id="clip0_1191_867">
<rect width="48.4398" height="48.4398" fill="white" transform="translate(0 26.9407) rotate(-33.7912)"/>
</clipPath>
</defs>
</svg>
