<svg width="22" height="22" viewBox="0 0 22 22" fill="none" xmlns="http://www.w3.org/2000/svg">
<path d="M11.0002 6.90936C10.3409 6.9229 9.7084 7.1729 9.21802 7.6138C8.72764 8.05469 8.41202 8.65712 8.32869 9.31127C8.24536 9.96542 8.39987 10.6277 8.76405 11.1775C9.12823 11.7273 9.67783 12.1278 10.3127 12.3062V19.9719C10.3127 20.1542 10.3851 20.3291 10.514 20.458C10.643 20.5869 10.8178 20.6594 11.0002 20.6594C11.1825 20.6594 11.3574 20.5869 11.4863 20.458C11.6152 20.3291 11.6877 20.1542 11.6877 19.9719V12.3062C12.3225 12.1278 12.8721 11.7273 13.2363 11.1775C13.6005 10.6277 13.755 9.96542 13.6717 9.31127C13.5883 8.65712 13.2727 8.05469 12.7823 7.6138C12.292 7.1729 11.6595 6.9229 11.0002 6.90936Z" fill="#F66F4D"/>
<path d="M15.9498 3.9531C15.8106 3.85958 15.6419 3.82022 15.4756 3.84241C15.3093 3.86461 15.1569 3.94683 15.047 4.0736C14.9372 4.20037 14.8774 4.36294 14.8791 4.53068C14.8808 4.69843 14.9437 4.85978 15.0561 4.98435C15.726 5.56518 16.2633 6.28321 16.6315 7.0898C16.9997 7.89639 17.1902 8.77269 17.1902 9.65935C17.1902 10.546 16.9997 11.4223 16.6315 12.2289C16.2633 13.0355 15.726 13.7535 15.0561 14.3343C14.9752 14.3886 14.9068 14.4595 14.8554 14.5422C14.804 14.6249 14.7707 14.7176 14.7579 14.8142C14.745 14.9107 14.7527 15.0089 14.7807 15.1022C14.8086 15.1955 14.856 15.2818 14.9198 15.3554C14.9836 15.429 15.0623 15.4882 15.1507 15.5291C15.239 15.57 15.3351 15.5916 15.4325 15.5926C15.5299 15.5935 15.6264 15.5738 15.7156 15.5347C15.8047 15.4955 15.8846 15.4379 15.9498 15.3656C16.766 14.6557 17.4205 13.779 17.8689 12.7946C18.3174 11.8102 18.5494 10.7411 18.5494 9.65935C18.5494 8.57762 18.3174 7.50848 17.8689 6.52409C17.4205 5.5397 16.766 4.66298 15.9498 3.9531ZM4.81232 9.65935C4.81196 8.77291 5.00206 7.89675 5.36977 7.09018C5.73747 6.2836 6.27418 5.56545 6.94357 4.98435C7.05593 4.85978 7.11887 4.69843 7.12053 4.53068C7.1222 4.36294 7.06247 4.20037 6.9526 4.0736C6.84274 3.94683 6.69031 3.86461 6.52403 3.84241C6.35775 3.82022 6.18909 3.85958 6.04982 3.9531C5.23361 4.66298 4.57918 5.5397 4.13072 6.52409C3.68226 7.50848 3.4502 8.57762 3.4502 9.65935C3.4502 10.7411 3.68226 11.8102 4.13072 12.7946C4.57918 13.779 5.23361 14.6557 6.04982 15.3656C6.18909 15.4591 6.35775 15.4985 6.52403 15.4763C6.69031 15.4541 6.84274 15.3719 6.9526 15.2451C7.06247 15.1183 7.1222 14.9558 7.12053 14.788C7.11887 14.6203 7.05593 14.4589 6.94357 14.3343C6.27418 13.7532 5.73747 13.0351 5.36977 12.2285C5.00206 11.4219 4.81196 10.5458 4.81232 9.65935Z" fill="#F66F4D"/>
<path d="M18.3908 1.51249C18.3231 1.45155 18.244 1.40454 18.1581 1.37415C18.0722 1.34376 17.9812 1.33058 17.8902 1.33537C17.7993 1.34016 17.7101 1.36282 17.6279 1.40206C17.5457 1.44129 17.472 1.49634 17.4111 1.56405C17.3501 1.63177 17.3031 1.71082 17.2727 1.7967C17.2424 1.88258 17.2292 1.9736 17.234 2.06458C17.2388 2.15555 17.2614 2.24469 17.3006 2.3269C17.3399 2.40912 17.3949 2.4828 17.4626 2.54374C18.4529 3.44576 19.244 4.54455 19.7853 5.76982C20.3266 6.99509 20.6062 8.31985 20.6062 9.65937C20.6062 10.9989 20.3266 12.3236 19.7853 13.5489C19.244 14.7742 18.4529 15.873 17.4626 16.775C17.3949 16.8359 17.3399 16.9096 17.3006 16.9918C17.2614 17.074 17.2388 17.1632 17.234 17.2542C17.2292 17.3451 17.2424 17.4362 17.2727 17.522C17.3031 17.6079 17.3501 17.687 17.4111 17.7547C17.472 17.8224 17.5457 17.8774 17.6279 17.9167C17.7101 17.9559 17.7993 17.9786 17.8902 17.9834C17.9812 17.9881 18.0722 17.975 18.1581 17.9446C18.244 17.9142 18.3231 17.8672 18.3908 17.8062C19.5217 16.7754 20.4252 15.5199 21.0433 14.1201C21.6615 12.7202 21.9808 11.2068 21.9808 9.67655C21.9808 8.14629 21.6615 6.63287 21.0433 5.23302C20.4252 3.83317 19.5217 2.5777 18.3908 1.54687V1.51249ZM1.37515 9.65937C1.37965 8.31878 1.66316 6.99381 2.20762 5.76876C2.75209 4.54371 3.54559 3.44541 4.53765 2.54374C4.6744 2.42066 4.75666 2.2483 4.76633 2.06458C4.776 1.88085 4.71229 1.7008 4.58921 1.56405C4.46614 1.4273 4.29377 1.34504 4.11005 1.33537C3.92632 1.3257 3.74628 1.38941 3.60952 1.51249C2.47857 2.54333 1.57513 3.7988 0.956975 5.19865C0.338816 6.59849 0.0195312 8.11192 0.0195312 9.64218C0.0195312 11.1724 0.338816 12.6859 0.956975 14.0857C1.57513 15.4856 2.47857 16.741 3.60952 17.7719C3.67724 17.8328 3.75629 17.8798 3.84217 17.9102C3.92805 17.9406 4.01908 17.9538 4.11005 17.949C4.20102 17.9442 4.29016 17.9215 4.37237 17.8823C4.45459 17.8431 4.52827 17.788 4.58921 17.7203C4.65015 17.6526 4.69716 17.5735 4.72755 17.4877C4.75794 17.4018 4.77112 17.3108 4.76633 17.2198C4.76154 17.1288 4.73888 17.0397 4.69965 16.9575C4.66041 16.8752 4.60536 16.8016 4.53765 16.7406C3.54985 15.8429 2.75884 14.7501 2.21452 13.5313C1.67021 12.3125 1.38441 10.9941 1.37515 9.65937Z" fill="#F66F4D"/>
</svg>
